<svg width="960" height="640" viewBox="0 0 960 640" fill="none" xmlns="http://www.w3.org/2000/svg">
<path d="M960 0H0V640H960V0Z" fill="#00008B"/>
<mask id="mask0_2_128" style="mask-type:luminance" maskUnits="userSpaceOnUse" x="0" y="0" width="493" height="320">
<path d="M0 0H492.203V320H0V0Z" fill="white"/>
</mask>
<g mask="url(#mask0_2_128)">
<path d="M0 0L480 320M480 0L0 320" stroke="white" stroke-width="55.4257"/>
</g>
<mask id="mask1_2_128" style="mask-type:luminance" maskUnits="userSpaceOnUse" x="0" y="0" width="493" height="320">
<path d="M0 0V160H492.203V320L0 0ZM492.203 0H246.102V320H0L492.203 0Z" fill="white"/>
</mask>
<g mask="url(#mask1_2_128)">
<path d="M0 0L480 320M480 0L0 320" stroke="#FF0000" stroke-width="36.9504"/>
</g>
<path d="M240 0V320M0 160H480" stroke="white" stroke-width="93.543"/>
<path d="M240 0V320M0 160H480" stroke="#FF0000" stroke-width="56.1258"/>
<path d="M240 384L253.884 441.559L296.292 420.145L271.198 470.506L310.195 501.362L265.018 506.602L271.24 566.493L240 522.667L208.76 566.493L214.981 506.602L169.805 501.362L208.802 470.506L183.708 420.145L226.115 441.559L240 384Z" fill="white"/>
<path d="M720 487.619L726.612 515.028L746.805 504.831L734.856 528.812L753.426 543.506L731.914 546.001L734.876 574.52L720 553.651L705.124 574.52L708.087 546.001L686.574 543.506L705.143 528.812L693.194 504.831L713.388 515.028L720 487.619Z" fill="white"/>
<path d="M600 234.286L606.612 261.695L626.805 251.498L614.856 275.479L633.426 290.172L611.914 292.668L614.875 321.187L600 300.317L585.124 321.187L588.086 292.668L566.573 290.172L585.143 275.479L573.194 251.498L593.389 261.695L600 234.286Z" fill="white"/>
<path d="M720 60.9524L726.612 88.3613L746.805 78.1643L734.856 102.146L753.426 116.839L731.914 119.334L734.876 147.854L720 126.984L705.124 147.854L708.087 119.334L686.574 116.839L705.143 102.146L693.194 78.1643L713.388 88.3613L720 60.9524Z" fill="white"/>
<path d="M826.667 191.619L833.278 219.028L853.472 208.831L841.522 232.812L860.093 247.506L838.58 250.001L841.543 278.52L826.667 257.651L811.79 278.52L814.753 250.001L793.241 247.506L811.811 232.812L799.861 208.831L820.055 219.028L826.667 191.619Z" fill="white"/>
<path d="M767.999 320L773.225 337.078L787.021 338.426L776.453 350.329L779.756 368.24L767.999 358.519L756.244 368.24L759.546 350.329L748.979 338.426L762.775 337.078L767.999 320Z" fill="white"/>
</svg>
