<svg width="960" height="640" viewBox="0 0 960 640" fill="none" xmlns="http://www.w3.org/2000/svg">
<path d="M960 0H0V640H960V0Z" fill="#B22234"/>
<path d="M0 73.8462H960ZM960 172.308H0ZM0 270.769H960ZM960 369.231H0ZM0 467.692H960ZM960 566.154H0Z" fill="black"/>
<path d="M0 73.8462H960M960 172.308H0M0 270.769H960M960 369.231H0M0 467.692H960M960 566.154H0" stroke="white" stroke-width="43.7427"/>
<path d="M384 0H0V344.615H384V0Z" fill="#3C3B6E"/>
<path d="M32 14.7692L41.1381 50.3929L17.2144 28.3762H46.7857L22.862 50.3929L32 14.7692Z" fill="white"/>
<path d="M32 83.6923L41.1381 119.316L17.2144 97.2993H46.7857L22.862 119.316L32 83.6923Z" fill="white"/>
<path d="M32 152.615L41.1381 188.239L17.2144 166.222H46.7857L22.862 188.239L32 152.615Z" fill="white"/>
<path d="M32 221.538L41.1381 257.162L17.2144 235.145H46.7857L22.862 257.162L32 221.538Z" fill="white"/>
<path d="M32 290.461L41.1381 326.085L17.2144 304.068H46.7857L22.862 326.085L32 290.461Z" fill="white"/>
<path d="M64 49.2307L73.1381 84.8544L49.2144 62.8378H78.7857L54.862 84.8544L64 49.2307Z" fill="white"/>
<path d="M64 118.154L73.1381 153.778L49.2144 131.761H78.7857L54.862 153.778L64 118.154Z" fill="white"/>
<path d="M64 187.077L73.1381 222.701L49.2144 200.684H78.7857L54.862 222.701L64 187.077Z" fill="white"/>
<path d="M64 256L73.1381 291.624L49.2144 269.607H78.7857L54.862 291.624L64 256Z" fill="white"/>
<path d="M96 14.7692L105.138 50.3929L81.2144 28.3762H110.786L86.862 50.3929L96 14.7692Z" fill="white"/>
<path d="M96 83.6923L105.138 119.316L81.2144 97.2993H110.786L86.862 119.316L96 83.6923Z" fill="white"/>
<path d="M96 152.615L105.138 188.239L81.2144 166.222H110.786L86.862 188.239L96 152.615Z" fill="white"/>
<path d="M96 221.538L105.138 257.162L81.2144 235.145H110.786L86.862 257.162L96 221.538Z" fill="white"/>
<path d="M96 290.461L105.138 326.085L81.2144 304.068H110.786L86.862 326.085L96 290.461Z" fill="white"/>
<path d="M128 49.2307L137.138 84.8544L113.214 62.8378H142.786L118.862 84.8544L128 49.2307Z" fill="white"/>
<path d="M128 118.154L137.138 153.778L113.214 131.761H142.786L118.862 153.778L128 118.154Z" fill="white"/>
<path d="M128 187.077L137.138 222.701L113.214 200.684H142.786L118.862 222.701L128 187.077Z" fill="white"/>
<path d="M128 256L137.138 291.624L113.214 269.607H142.786L118.862 291.624L128 256Z" fill="white"/>
<path d="M160 14.7692L169.138 50.3929L145.214 28.3762H174.786L150.862 50.3929L160 14.7692Z" fill="white"/>
<path d="M160 83.6923L169.138 119.316L145.214 97.2993H174.786L150.862 119.316L160 83.6923Z" fill="white"/>
<path d="M160 152.615L169.138 188.239L145.214 166.222H174.786L150.862 188.239L160 152.615Z" fill="white"/>
<path d="M160 221.538L169.138 257.162L145.214 235.145H174.786L150.862 257.162L160 221.538Z" fill="white"/>
<path d="M160 290.461L169.138 326.085L145.214 304.068H174.786L150.862 326.085L160 290.461Z" fill="white"/>
<path d="M192 49.2307L201.138 84.8544L177.214 62.8378H206.786L182.862 84.8544L192 49.2307Z" fill="white"/>
<path d="M192 118.154L201.138 153.778L177.214 131.761H206.786L182.862 153.778L192 118.154Z" fill="white"/>
<path d="M192 187.077L201.138 222.701L177.214 200.684H206.786L182.862 222.701L192 187.077Z" fill="white"/>
<path d="M192 256L201.138 291.624L177.214 269.607H206.786L182.862 291.624L192 256Z" fill="white"/>
<path d="M224 14.7692L233.138 50.3929L209.214 28.3762H238.786L214.862 50.3929L224 14.7692Z" fill="white"/>
<path d="M224 83.6923L233.138 119.316L209.214 97.2993H238.786L214.862 119.316L224 83.6923Z" fill="white"/>
<path d="M224 152.615L233.138 188.239L209.214 166.222H238.786L214.862 188.239L224 152.615Z" fill="white"/>
<path d="M224 221.538L233.138 257.162L209.214 235.145H238.786L214.862 257.162L224 221.538Z" fill="white"/>
<path d="M224 290.461L233.138 326.085L209.214 304.068H238.786L214.862 326.085L224 290.461Z" fill="white"/>
<path d="M256 49.2307L265.138 84.8544L241.214 62.8378H270.786L246.862 84.8544L256 49.2307Z" fill="white"/>
<path d="M256 118.154L265.138 153.778L241.214 131.761H270.786L246.862 153.778L256 118.154Z" fill="white"/>
<path d="M256 187.077L265.138 222.701L241.214 200.684H270.786L246.862 222.701L256 187.077Z" fill="white"/>
<path d="M256 256L265.138 291.624L241.214 269.607H270.786L246.862 291.624L256 256Z" fill="white"/>
<path d="M288 14.7692L297.138 50.3929L273.214 28.3762H302.786L278.862 50.3929L288 14.7692Z" fill="white"/>
<path d="M288 83.6923L297.138 119.316L273.214 97.2993H302.786L278.862 119.316L288 83.6923Z" fill="white"/>
<path d="M288 152.615L297.138 188.239L273.214 166.222H302.786L278.862 188.239L288 152.615Z" fill="white"/>
<path d="M288 221.538L297.138 257.162L273.214 235.145H302.786L278.862 257.162L288 221.538Z" fill="white"/>
<path d="M288 290.461L297.138 326.085L273.214 304.068H302.786L278.862 326.085L288 290.461Z" fill="white"/>
<path d="M320 49.2307L329.138 84.8544L305.214 62.8378H334.786L310.862 84.8544L320 49.2307Z" fill="white"/>
<path d="M320 118.154L329.138 153.778L305.214 131.761H334.786L310.862 153.778L320 118.154Z" fill="white"/>
<path d="M320 187.077L329.138 222.701L305.214 200.684H334.786L310.862 222.701L320 187.077Z" fill="white"/>
<path d="M320 256L329.138 291.624L305.214 269.607H334.786L310.862 291.624L320 256Z" fill="white"/>
<path d="M352 14.7692L361.138 50.3929L337.214 28.3762H366.786L342.862 50.3929L352 14.7692Z" fill="white"/>
<path d="M352 83.6923L361.138 119.316L337.214 97.2993H366.786L342.862 119.316L352 83.6923Z" fill="white"/>
<path d="M352 152.615L361.138 188.239L337.214 166.222H366.786L342.862 188.239L352 152.615Z" fill="white"/>
<path d="M352 221.538L361.138 257.162L337.214 235.145H366.786L342.862 257.162L352 221.538Z" fill="white"/>
<path d="M352 290.461L361.138 326.085L337.214 304.068H366.786L342.862 326.085L352 290.461Z" fill="white"/>
</svg>
