<?xml version="1.0" encoding="UTF-8"?>
<svg id="Layer_2" data-name="Layer 2" xmlns="http://www.w3.org/2000/svg" viewBox="0 0 105.04 105.56">
  <defs>
    <style>
      .cls-1 {
        fill: #ee7800;
      }
    </style>
  </defs>
  <g id="_图层_1" data-name="图层 1">
    <path class="cls-1" d="M98.07,79.01c-12.43,14.91-28.71,17.65-40.05,18.21-28.71,1.37-52.21-20.41-53.86-45.55l.28-.27q.27,0,.27.27c4.12,20.95,25.69,36.48,51.38,35.59,32.08-1.1,56.13-25.42,46.99-50.22,0-.34-.55-.34-.55.27.27,19.03-16.9,33.94-40.05,39.23-29.61,6.32-57.77-11.33-56.68-35.1l.28-.27q.27,0,.27.27c.28.82.28,1.65.55,2.47,3.92,18.2,26.79,28.71,50.84,23.77,33.18-6.94,45.07-33.46,32.36-51.94-.28-.28-.55-.28-.55.28,4.4,18.48-10.51,34-32.08,40.6-27.34,8.86-52.21-3.85-48.64-24.32,0,0,0-.28.28-.28v.28c0,1.37.55,3.85.89,4.74,6.6,22.33,53.04,18.48,67.94-6.39C86.25,17.66,81.79,0,52.52,0,23.81-.27-1.06,24.05.04,54.69c1.1,28.99,25.42,51.94,54.69,50.84,18.82-.55,35.1-11.06,43.97-26.24,0-.27-.35-.55-.62-.27ZM15.49,19.86h.27c.27,0,.27.28.27.55-1.92,3.02-2.75,6.66-1.65,9.69,1.77,5.36,9.14,9.7,17.11,9.39,6.82.06,14.23-3.27,18.49-6.12,11.28-8.57,7.42-18.53.35-18.38-4.88.1-16.52,5.13-15.38.74.52-2.52,7.04-5.6,9.92-2.88h0c.63.26,1.82.05,2.41-.4,1.2-.93,1.42-3.44-.88-4.12-3.44-1.02-6.72-.57-11.27,2.67-4.55,3.25-5.82,10.45,1.88,11.27h0c8.29.52,11.13-6.38,13.73-2.06,2.41,4.01-6.21,10.6-13.85,12.71-7.63,2.11-15.72-.47-18.1-4.76-2.48-4.74,2.75-12.98,12.16-18.55,16.01-9.07,32.08-6.59,37.03,1.99,6.66,10.72-8.03,31.19-33.18,33.11-18.2,1.38-30.09-10.24-19.3-24.87Z"/>
  </g>
</svg>